<mxfile host="Electron" modified="2023-12-06T10:12:46.246Z" agent="Mozilla/5.0 (Windows NT 10.0; Win64; x64) AppleWebKit/537.36 (KHTML, like Gecko) draw.io/22.1.2 Chrome/114.0.5735.289 Electron/25.9.4 Safari/537.36" etag="jAARqn-Eib4t0YAHnSWa" version="22.1.2" type="device">
  <diagram id="C5RBs43oDa-KdzZeNtuy" name="Page-1">
    <mxGraphModel dx="880" dy="532" grid="1" gridSize="10" guides="1" tooltips="1" connect="1" arrows="1" fold="1" page="1" pageScale="1" pageWidth="827" pageHeight="1169" math="0" shadow="0">
      <root>
        <mxCell id="WIyWlLk6GJQsqaUBKTNV-0" />
        <mxCell id="WIyWlLk6GJQsqaUBKTNV-1" parent="WIyWlLk6GJQsqaUBKTNV-0" />
        <mxCell id="Gq5bSEAUi8Ulnxepstt4-3" style="edgeStyle=orthogonalEdgeStyle;rounded=0;orthogonalLoop=1;jettySize=auto;html=1;entryX=0;entryY=0.5;entryDx=0;entryDy=0;" edge="1" parent="WIyWlLk6GJQsqaUBKTNV-1" source="WIyWlLk6GJQsqaUBKTNV-3" target="WIyWlLk6GJQsqaUBKTNV-11">
          <mxGeometry relative="1" as="geometry" />
        </mxCell>
        <mxCell id="Gq5bSEAUi8Ulnxepstt4-4" style="edgeStyle=orthogonalEdgeStyle;rounded=0;orthogonalLoop=1;jettySize=auto;html=1;entryX=0;entryY=0.5;entryDx=0;entryDy=0;" edge="1" parent="WIyWlLk6GJQsqaUBKTNV-1" source="WIyWlLk6GJQsqaUBKTNV-3" target="Gq5bSEAUi8Ulnxepstt4-0">
          <mxGeometry relative="1" as="geometry" />
        </mxCell>
        <mxCell id="Gq5bSEAUi8Ulnxepstt4-5" style="edgeStyle=orthogonalEdgeStyle;rounded=0;orthogonalLoop=1;jettySize=auto;html=1;entryX=0;entryY=0.5;entryDx=0;entryDy=0;" edge="1" parent="WIyWlLk6GJQsqaUBKTNV-1" source="WIyWlLk6GJQsqaUBKTNV-3" target="Gq5bSEAUi8Ulnxepstt4-2">
          <mxGeometry relative="1" as="geometry" />
        </mxCell>
        <mxCell id="Gq5bSEAUi8Ulnxepstt4-6" style="edgeStyle=orthogonalEdgeStyle;rounded=0;orthogonalLoop=1;jettySize=auto;html=1;entryX=0;entryY=0.5;entryDx=0;entryDy=0;" edge="1" parent="WIyWlLk6GJQsqaUBKTNV-1" source="WIyWlLk6GJQsqaUBKTNV-3" target="Gq5bSEAUi8Ulnxepstt4-1">
          <mxGeometry relative="1" as="geometry" />
        </mxCell>
        <mxCell id="WIyWlLk6GJQsqaUBKTNV-3" value="Login" style="rounded=1;whiteSpace=wrap;html=1;fontSize=12;glass=0;strokeWidth=1;shadow=0;fillColor=#008a00;fontColor=#ffffff;strokeColor=#005700;" parent="WIyWlLk6GJQsqaUBKTNV-1" vertex="1">
          <mxGeometry x="10" y="310" width="120" height="40" as="geometry" />
        </mxCell>
        <mxCell id="Gq5bSEAUi8Ulnxepstt4-10" style="edgeStyle=orthogonalEdgeStyle;rounded=0;orthogonalLoop=1;jettySize=auto;html=1;entryX=0;entryY=0.5;entryDx=0;entryDy=0;" edge="1" parent="WIyWlLk6GJQsqaUBKTNV-1" source="WIyWlLk6GJQsqaUBKTNV-11" target="Gq5bSEAUi8Ulnxepstt4-8">
          <mxGeometry relative="1" as="geometry" />
        </mxCell>
        <mxCell id="Gq5bSEAUi8Ulnxepstt4-11" style="edgeStyle=orthogonalEdgeStyle;rounded=0;orthogonalLoop=1;jettySize=auto;html=1;entryX=0;entryY=0.5;entryDx=0;entryDy=0;" edge="1" parent="WIyWlLk6GJQsqaUBKTNV-1" source="WIyWlLk6GJQsqaUBKTNV-11" target="Gq5bSEAUi8Ulnxepstt4-7">
          <mxGeometry relative="1" as="geometry" />
        </mxCell>
        <mxCell id="Gq5bSEAUi8Ulnxepstt4-12" style="edgeStyle=orthogonalEdgeStyle;rounded=0;orthogonalLoop=1;jettySize=auto;html=1;entryX=0;entryY=0.5;entryDx=0;entryDy=0;" edge="1" parent="WIyWlLk6GJQsqaUBKTNV-1" source="WIyWlLk6GJQsqaUBKTNV-11" target="Gq5bSEAUi8Ulnxepstt4-9">
          <mxGeometry relative="1" as="geometry" />
        </mxCell>
        <mxCell id="WIyWlLk6GJQsqaUBKTNV-11" value="Customer" style="rounded=1;whiteSpace=wrap;html=1;fontSize=12;glass=0;strokeWidth=1;shadow=0;fillColor=#008a00;fontColor=#ffffff;strokeColor=#005700;" parent="WIyWlLk6GJQsqaUBKTNV-1" vertex="1">
          <mxGeometry x="200" y="80" width="120" height="40" as="geometry" />
        </mxCell>
        <mxCell id="Gq5bSEAUi8Ulnxepstt4-18" style="edgeStyle=orthogonalEdgeStyle;rounded=0;orthogonalLoop=1;jettySize=auto;html=1;entryX=0;entryY=0.5;entryDx=0;entryDy=0;" edge="1" parent="WIyWlLk6GJQsqaUBKTNV-1" source="Gq5bSEAUi8Ulnxepstt4-0" target="Gq5bSEAUi8Ulnxepstt4-14">
          <mxGeometry relative="1" as="geometry" />
        </mxCell>
        <mxCell id="Gq5bSEAUi8Ulnxepstt4-27" style="edgeStyle=orthogonalEdgeStyle;rounded=0;orthogonalLoop=1;jettySize=auto;html=1;entryX=0;entryY=0.5;entryDx=0;entryDy=0;" edge="1" parent="WIyWlLk6GJQsqaUBKTNV-1" source="Gq5bSEAUi8Ulnxepstt4-0" target="Gq5bSEAUi8Ulnxepstt4-26">
          <mxGeometry relative="1" as="geometry" />
        </mxCell>
        <mxCell id="Gq5bSEAUi8Ulnxepstt4-0" value="Admin" style="rounded=1;whiteSpace=wrap;html=1;fontSize=12;glass=0;strokeWidth=1;shadow=0;" vertex="1" parent="WIyWlLk6GJQsqaUBKTNV-1">
          <mxGeometry x="200" y="525" width="120" height="40" as="geometry" />
        </mxCell>
        <mxCell id="Gq5bSEAUi8Ulnxepstt4-57" style="edgeStyle=orthogonalEdgeStyle;rounded=0;orthogonalLoop=1;jettySize=auto;html=1;entryX=0;entryY=0.5;entryDx=0;entryDy=0;" edge="1" parent="WIyWlLk6GJQsqaUBKTNV-1" source="Gq5bSEAUi8Ulnxepstt4-1" target="Gq5bSEAUi8Ulnxepstt4-48">
          <mxGeometry relative="1" as="geometry" />
        </mxCell>
        <mxCell id="Gq5bSEAUi8Ulnxepstt4-58" style="edgeStyle=orthogonalEdgeStyle;rounded=0;orthogonalLoop=1;jettySize=auto;html=1;entryX=0;entryY=0.5;entryDx=0;entryDy=0;" edge="1" parent="WIyWlLk6GJQsqaUBKTNV-1" source="Gq5bSEAUi8Ulnxepstt4-1" target="Gq5bSEAUi8Ulnxepstt4-56">
          <mxGeometry relative="1" as="geometry" />
        </mxCell>
        <mxCell id="Gq5bSEAUi8Ulnxepstt4-1" value="Delivery Runner" style="rounded=1;whiteSpace=wrap;html=1;fontSize=12;glass=0;strokeWidth=1;shadow=0;" vertex="1" parent="WIyWlLk6GJQsqaUBKTNV-1">
          <mxGeometry x="200" y="960" width="120" height="40" as="geometry" />
        </mxCell>
        <mxCell id="Gq5bSEAUi8Ulnxepstt4-44" style="edgeStyle=orthogonalEdgeStyle;rounded=0;orthogonalLoop=1;jettySize=auto;html=1;entryX=0;entryY=0.5;entryDx=0;entryDy=0;" edge="1" parent="WIyWlLk6GJQsqaUBKTNV-1" source="Gq5bSEAUi8Ulnxepstt4-2" target="Gq5bSEAUi8Ulnxepstt4-23">
          <mxGeometry relative="1" as="geometry" />
        </mxCell>
        <mxCell id="Gq5bSEAUi8Ulnxepstt4-45" style="edgeStyle=orthogonalEdgeStyle;rounded=0;orthogonalLoop=1;jettySize=auto;html=1;entryX=0;entryY=0.5;entryDx=0;entryDy=0;" edge="1" parent="WIyWlLk6GJQsqaUBKTNV-1" source="Gq5bSEAUi8Ulnxepstt4-2" target="Gq5bSEAUi8Ulnxepstt4-22">
          <mxGeometry relative="1" as="geometry" />
        </mxCell>
        <mxCell id="Gq5bSEAUi8Ulnxepstt4-46" style="edgeStyle=orthogonalEdgeStyle;rounded=0;orthogonalLoop=1;jettySize=auto;html=1;entryX=0;entryY=0.5;entryDx=0;entryDy=0;" edge="1" parent="WIyWlLk6GJQsqaUBKTNV-1" source="Gq5bSEAUi8Ulnxepstt4-2" target="Gq5bSEAUi8Ulnxepstt4-24">
          <mxGeometry relative="1" as="geometry" />
        </mxCell>
        <mxCell id="Gq5bSEAUi8Ulnxepstt4-2" value="Vendor" style="rounded=1;whiteSpace=wrap;html=1;fontSize=12;glass=0;strokeWidth=1;shadow=0;" vertex="1" parent="WIyWlLk6GJQsqaUBKTNV-1">
          <mxGeometry x="200" y="715" width="120" height="40" as="geometry" />
        </mxCell>
        <mxCell id="Gq5bSEAUi8Ulnxepstt4-83" style="edgeStyle=orthogonalEdgeStyle;rounded=0;orthogonalLoop=1;jettySize=auto;html=1;entryX=0;entryY=0.5;entryDx=0;entryDy=0;" edge="1" parent="WIyWlLk6GJQsqaUBKTNV-1" source="Gq5bSEAUi8Ulnxepstt4-7" target="Gq5bSEAUi8Ulnxepstt4-77">
          <mxGeometry relative="1" as="geometry">
            <Array as="points">
              <mxPoint x="540" y="65" />
              <mxPoint x="540" y="235" />
            </Array>
          </mxGeometry>
        </mxCell>
        <mxCell id="Gq5bSEAUi8Ulnxepstt4-84" style="edgeStyle=orthogonalEdgeStyle;rounded=0;orthogonalLoop=1;jettySize=auto;html=1;entryX=0;entryY=0.5;entryDx=0;entryDy=0;" edge="1" parent="WIyWlLk6GJQsqaUBKTNV-1" source="Gq5bSEAUi8Ulnxepstt4-7" target="Gq5bSEAUi8Ulnxepstt4-78">
          <mxGeometry relative="1" as="geometry">
            <Array as="points">
              <mxPoint x="540" y="65" />
              <mxPoint x="540" y="275" />
            </Array>
          </mxGeometry>
        </mxCell>
        <mxCell id="Gq5bSEAUi8Ulnxepstt4-7" value="Wallet" style="rounded=1;whiteSpace=wrap;html=1;fontSize=12;glass=0;strokeWidth=1;shadow=0;" vertex="1" parent="WIyWlLk6GJQsqaUBKTNV-1">
          <mxGeometry x="390" y="50" width="100" height="30" as="geometry" />
        </mxCell>
        <mxCell id="Gq5bSEAUi8Ulnxepstt4-72" style="edgeStyle=orthogonalEdgeStyle;rounded=0;orthogonalLoop=1;jettySize=auto;html=1;entryX=0;entryY=0.5;entryDx=0;entryDy=0;" edge="1" parent="WIyWlLk6GJQsqaUBKTNV-1" source="Gq5bSEAUi8Ulnxepstt4-8" target="Gq5bSEAUi8Ulnxepstt4-66">
          <mxGeometry relative="1" as="geometry" />
        </mxCell>
        <mxCell id="Gq5bSEAUi8Ulnxepstt4-74" style="edgeStyle=orthogonalEdgeStyle;rounded=0;orthogonalLoop=1;jettySize=auto;html=1;entryX=0;entryY=0.5;entryDx=0;entryDy=0;" edge="1" parent="WIyWlLk6GJQsqaUBKTNV-1" source="Gq5bSEAUi8Ulnxepstt4-8" target="Gq5bSEAUi8Ulnxepstt4-67">
          <mxGeometry relative="1" as="geometry" />
        </mxCell>
        <mxCell id="Gq5bSEAUi8Ulnxepstt4-75" style="edgeStyle=orthogonalEdgeStyle;rounded=0;orthogonalLoop=1;jettySize=auto;html=1;entryX=0;entryY=0.5;entryDx=0;entryDy=0;" edge="1" parent="WIyWlLk6GJQsqaUBKTNV-1" source="Gq5bSEAUi8Ulnxepstt4-8" target="Gq5bSEAUi8Ulnxepstt4-70">
          <mxGeometry relative="1" as="geometry" />
        </mxCell>
        <mxCell id="Gq5bSEAUi8Ulnxepstt4-76" style="edgeStyle=orthogonalEdgeStyle;rounded=0;orthogonalLoop=1;jettySize=auto;html=1;entryX=0;entryY=0.5;entryDx=0;entryDy=0;" edge="1" parent="WIyWlLk6GJQsqaUBKTNV-1" source="Gq5bSEAUi8Ulnxepstt4-8" target="Gq5bSEAUi8Ulnxepstt4-71">
          <mxGeometry relative="1" as="geometry" />
        </mxCell>
        <mxCell id="Gq5bSEAUi8Ulnxepstt4-8" value="Menu" style="rounded=1;whiteSpace=wrap;html=1;fontSize=12;glass=0;strokeWidth=1;shadow=0;fillColor=#d80073;fontColor=#ffffff;strokeColor=#A50040;" vertex="1" parent="WIyWlLk6GJQsqaUBKTNV-1">
          <mxGeometry x="390" y="10" width="100" height="30" as="geometry" />
        </mxCell>
        <mxCell id="Gq5bSEAUi8Ulnxepstt4-82" style="edgeStyle=orthogonalEdgeStyle;rounded=0;orthogonalLoop=1;jettySize=auto;html=1;entryX=0;entryY=0.5;entryDx=0;entryDy=0;" edge="1" parent="WIyWlLk6GJQsqaUBKTNV-1" source="Gq5bSEAUi8Ulnxepstt4-9" target="Gq5bSEAUi8Ulnxepstt4-79">
          <mxGeometry relative="1" as="geometry">
            <Array as="points">
              <mxPoint x="440" y="315" />
            </Array>
          </mxGeometry>
        </mxCell>
        <mxCell id="Gq5bSEAUi8Ulnxepstt4-9" value="Notification" style="rounded=1;whiteSpace=wrap;html=1;fontSize=12;glass=0;strokeWidth=1;shadow=0;" vertex="1" parent="WIyWlLk6GJQsqaUBKTNV-1">
          <mxGeometry x="390" y="90" width="100" height="30" as="geometry" />
        </mxCell>
        <mxCell id="Gq5bSEAUi8Ulnxepstt4-13" value="Top-Up Cust" style="rounded=1;whiteSpace=wrap;html=1;fontSize=12;glass=0;strokeWidth=1;shadow=0;" vertex="1" parent="WIyWlLk6GJQsqaUBKTNV-1">
          <mxGeometry x="660" y="565" width="100" height="30" as="geometry" />
        </mxCell>
        <mxCell id="Gq5bSEAUi8Ulnxepstt4-39" style="edgeStyle=orthogonalEdgeStyle;rounded=0;orthogonalLoop=1;jettySize=auto;html=1;entryX=0;entryY=0.5;entryDx=0;entryDy=0;" edge="1" parent="WIyWlLk6GJQsqaUBKTNV-1" source="Gq5bSEAUi8Ulnxepstt4-14" target="Gq5bSEAUi8Ulnxepstt4-38">
          <mxGeometry relative="1" as="geometry" />
        </mxCell>
        <mxCell id="Gq5bSEAUi8Ulnxepstt4-40" style="edgeStyle=orthogonalEdgeStyle;rounded=0;orthogonalLoop=1;jettySize=auto;html=1;" edge="1" parent="WIyWlLk6GJQsqaUBKTNV-1" source="Gq5bSEAUi8Ulnxepstt4-14" target="Gq5bSEAUi8Ulnxepstt4-37">
          <mxGeometry relative="1" as="geometry" />
        </mxCell>
        <mxCell id="Gq5bSEAUi8Ulnxepstt4-41" style="edgeStyle=orthogonalEdgeStyle;rounded=0;orthogonalLoop=1;jettySize=auto;html=1;entryX=0;entryY=0.5;entryDx=0;entryDy=0;" edge="1" parent="WIyWlLk6GJQsqaUBKTNV-1" source="Gq5bSEAUi8Ulnxepstt4-14" target="Gq5bSEAUi8Ulnxepstt4-36">
          <mxGeometry relative="1" as="geometry" />
        </mxCell>
        <mxCell id="Gq5bSEAUi8Ulnxepstt4-14" value="User Registration" style="rounded=1;whiteSpace=wrap;html=1;fontSize=12;glass=0;strokeWidth=1;shadow=0;fillColor=#008a00;fontColor=#ffffff;strokeColor=#005700;" vertex="1" parent="WIyWlLk6GJQsqaUBKTNV-1">
          <mxGeometry x="390" y="480" width="100" height="30" as="geometry" />
        </mxCell>
        <mxCell id="Gq5bSEAUi8Ulnxepstt4-15" value="Receipt transaction" style="rounded=1;whiteSpace=wrap;html=1;fontSize=12;glass=0;strokeWidth=1;shadow=0;" vertex="1" parent="WIyWlLk6GJQsqaUBKTNV-1">
          <mxGeometry x="660" y="605" width="100" height="30" as="geometry" />
        </mxCell>
        <mxCell id="Gq5bSEAUi8Ulnxepstt4-16" value="Receipt transaction to ID" style="rounded=1;whiteSpace=wrap;html=1;fontSize=12;glass=0;strokeWidth=1;shadow=0;" vertex="1" parent="WIyWlLk6GJQsqaUBKTNV-1">
          <mxGeometry x="660" y="645" width="100" height="30" as="geometry" />
        </mxCell>
        <mxCell id="Gq5bSEAUi8Ulnxepstt4-22" value="Manage Menu" style="rounded=1;whiteSpace=wrap;html=1;fontSize=12;glass=0;strokeWidth=1;shadow=0;fillColor=#d80073;fontColor=#ffffff;strokeColor=#A50040;" vertex="1" parent="WIyWlLk6GJQsqaUBKTNV-1">
          <mxGeometry x="390" y="720" width="100" height="30" as="geometry" />
        </mxCell>
        <mxCell id="Gq5bSEAUi8Ulnxepstt4-23" value="Accept/ Cancel Order" style="rounded=1;whiteSpace=wrap;html=1;fontSize=12;glass=0;strokeWidth=1;shadow=0;fillColor=#d80073;fontColor=#ffffff;strokeColor=#A50040;" vertex="1" parent="WIyWlLk6GJQsqaUBKTNV-1">
          <mxGeometry x="390" y="680" width="100" height="30" as="geometry" />
        </mxCell>
        <mxCell id="Gq5bSEAUi8Ulnxepstt4-24" value="Send Notifications to DD" style="rounded=1;whiteSpace=wrap;html=1;fontSize=12;glass=0;strokeWidth=1;shadow=0;" vertex="1" parent="WIyWlLk6GJQsqaUBKTNV-1">
          <mxGeometry x="390" y="760" width="100" height="30" as="geometry" />
        </mxCell>
        <mxCell id="Gq5bSEAUi8Ulnxepstt4-28" style="edgeStyle=orthogonalEdgeStyle;rounded=0;orthogonalLoop=1;jettySize=auto;html=1;exitX=1;exitY=0.5;exitDx=0;exitDy=0;entryX=0;entryY=0.5;entryDx=0;entryDy=0;" edge="1" parent="WIyWlLk6GJQsqaUBKTNV-1" source="Gq5bSEAUi8Ulnxepstt4-26" target="Gq5bSEAUi8Ulnxepstt4-13">
          <mxGeometry relative="1" as="geometry" />
        </mxCell>
        <mxCell id="Gq5bSEAUi8Ulnxepstt4-29" style="edgeStyle=orthogonalEdgeStyle;rounded=0;orthogonalLoop=1;jettySize=auto;html=1;entryX=0;entryY=0.5;entryDx=0;entryDy=0;" edge="1" parent="WIyWlLk6GJQsqaUBKTNV-1" source="Gq5bSEAUi8Ulnxepstt4-26" target="Gq5bSEAUi8Ulnxepstt4-15">
          <mxGeometry relative="1" as="geometry" />
        </mxCell>
        <mxCell id="Gq5bSEAUi8Ulnxepstt4-30" style="edgeStyle=orthogonalEdgeStyle;rounded=0;orthogonalLoop=1;jettySize=auto;html=1;entryX=0;entryY=0.5;entryDx=0;entryDy=0;" edge="1" parent="WIyWlLk6GJQsqaUBKTNV-1" source="Gq5bSEAUi8Ulnxepstt4-26" target="Gq5bSEAUi8Ulnxepstt4-16">
          <mxGeometry relative="1" as="geometry" />
        </mxCell>
        <mxCell id="Gq5bSEAUi8Ulnxepstt4-26" value="Student Credit" style="rounded=1;whiteSpace=wrap;html=1;fontSize=12;glass=0;strokeWidth=1;shadow=0;fillColor=#008a00;fontColor=#ffffff;strokeColor=#005700;" vertex="1" parent="WIyWlLk6GJQsqaUBKTNV-1">
          <mxGeometry x="390" y="520" width="100" height="30" as="geometry" />
        </mxCell>
        <mxCell id="Gq5bSEAUi8Ulnxepstt4-31" value="Functions" style="text;html=1;align=center;verticalAlign=middle;resizable=0;points=[];autosize=1;strokeColor=none;fillColor=none;" vertex="1" parent="WIyWlLk6GJQsqaUBKTNV-1">
          <mxGeometry x="490" y="540" width="80" height="30" as="geometry" />
        </mxCell>
        <mxCell id="Gq5bSEAUi8Ulnxepstt4-36" value="Update" style="rounded=1;whiteSpace=wrap;html=1;fontSize=12;glass=0;strokeWidth=1;shadow=0;" vertex="1" parent="WIyWlLk6GJQsqaUBKTNV-1">
          <mxGeometry x="660" y="430" width="100" height="30" as="geometry" />
        </mxCell>
        <mxCell id="Gq5bSEAUi8Ulnxepstt4-37" value="Register/Add" style="rounded=1;whiteSpace=wrap;html=1;fontSize=12;glass=0;strokeWidth=1;shadow=0;" vertex="1" parent="WIyWlLk6GJQsqaUBKTNV-1">
          <mxGeometry x="660" y="470" width="100" height="30" as="geometry" />
        </mxCell>
        <mxCell id="Gq5bSEAUi8Ulnxepstt4-38" value="Delete User" style="rounded=1;whiteSpace=wrap;html=1;fontSize=12;glass=0;strokeWidth=1;shadow=0;" vertex="1" parent="WIyWlLk6GJQsqaUBKTNV-1">
          <mxGeometry x="660" y="510" width="100" height="30" as="geometry" />
        </mxCell>
        <mxCell id="Gq5bSEAUi8Ulnxepstt4-42" value="Functions" style="text;html=1;align=center;verticalAlign=middle;resizable=0;points=[];autosize=1;strokeColor=none;fillColor=none;" vertex="1" parent="WIyWlLk6GJQsqaUBKTNV-1">
          <mxGeometry x="490" y="495" width="80" height="30" as="geometry" />
        </mxCell>
        <mxCell id="Gq5bSEAUi8Ulnxepstt4-47" value="Send Order to next Runner" style="rounded=1;whiteSpace=wrap;html=1;fontSize=12;glass=0;strokeWidth=1;shadow=0;" vertex="1" parent="WIyWlLk6GJQsqaUBKTNV-1">
          <mxGeometry x="660" y="950" width="100" height="30" as="geometry" />
        </mxCell>
        <mxCell id="Gq5bSEAUi8Ulnxepstt4-52" style="edgeStyle=orthogonalEdgeStyle;rounded=0;orthogonalLoop=1;jettySize=auto;html=1;entryX=0;entryY=0.5;entryDx=0;entryDy=0;" edge="1" parent="WIyWlLk6GJQsqaUBKTNV-1" source="Gq5bSEAUi8Ulnxepstt4-48" target="Gq5bSEAUi8Ulnxepstt4-50">
          <mxGeometry relative="1" as="geometry" />
        </mxCell>
        <mxCell id="Gq5bSEAUi8Ulnxepstt4-53" style="edgeStyle=orthogonalEdgeStyle;rounded=0;orthogonalLoop=1;jettySize=auto;html=1;entryX=0;entryY=0.5;entryDx=0;entryDy=0;" edge="1" parent="WIyWlLk6GJQsqaUBKTNV-1" source="Gq5bSEAUi8Ulnxepstt4-48" target="Gq5bSEAUi8Ulnxepstt4-47">
          <mxGeometry relative="1" as="geometry" />
        </mxCell>
        <mxCell id="Gq5bSEAUi8Ulnxepstt4-55" style="edgeStyle=orthogonalEdgeStyle;rounded=0;orthogonalLoop=1;jettySize=auto;html=1;entryX=0;entryY=0.5;entryDx=0;entryDy=0;" edge="1" parent="WIyWlLk6GJQsqaUBKTNV-1" source="Gq5bSEAUi8Ulnxepstt4-48" target="Gq5bSEAUi8Ulnxepstt4-54">
          <mxGeometry relative="1" as="geometry" />
        </mxCell>
        <mxCell id="Gq5bSEAUi8Ulnxepstt4-48" value="View Tasks" style="rounded=1;whiteSpace=wrap;html=1;fontSize=12;glass=0;strokeWidth=1;shadow=0;" vertex="1" parent="WIyWlLk6GJQsqaUBKTNV-1">
          <mxGeometry x="390" y="950" width="100" height="30" as="geometry" />
        </mxCell>
        <mxCell id="Gq5bSEAUi8Ulnxepstt4-50" value="Accept/ Cancel Delivery order" style="rounded=1;whiteSpace=wrap;html=1;fontSize=12;glass=0;strokeWidth=1;shadow=0;" vertex="1" parent="WIyWlLk6GJQsqaUBKTNV-1">
          <mxGeometry x="660" y="910" width="100" height="30" as="geometry" />
        </mxCell>
        <mxCell id="Gq5bSEAUi8Ulnxepstt4-54" value="Check Task History" style="rounded=1;whiteSpace=wrap;html=1;fontSize=12;glass=0;strokeWidth=1;shadow=0;" vertex="1" parent="WIyWlLk6GJQsqaUBKTNV-1">
          <mxGeometry x="660" y="990" width="100" height="30" as="geometry" />
        </mxCell>
        <mxCell id="Gq5bSEAUi8Ulnxepstt4-60" style="edgeStyle=orthogonalEdgeStyle;rounded=0;orthogonalLoop=1;jettySize=auto;html=1;entryX=0;entryY=0.75;entryDx=0;entryDy=0;" edge="1" parent="WIyWlLk6GJQsqaUBKTNV-1" source="Gq5bSEAUi8Ulnxepstt4-56" target="Gq5bSEAUi8Ulnxepstt4-59">
          <mxGeometry relative="1" as="geometry">
            <Array as="points">
              <mxPoint x="440" y="1073" />
              <mxPoint x="575" y="1073" />
            </Array>
          </mxGeometry>
        </mxCell>
        <mxCell id="Gq5bSEAUi8Ulnxepstt4-56" value="Revenue Dashboard" style="rounded=1;whiteSpace=wrap;html=1;fontSize=12;glass=0;strokeWidth=1;shadow=0;" vertex="1" parent="WIyWlLk6GJQsqaUBKTNV-1">
          <mxGeometry x="390" y="990" width="100" height="30" as="geometry" />
        </mxCell>
        <mxCell id="Gq5bSEAUi8Ulnxepstt4-59" value="View Revenue" style="rounded=1;whiteSpace=wrap;html=1;fontSize=12;glass=0;strokeWidth=1;shadow=0;" vertex="1" parent="WIyWlLk6GJQsqaUBKTNV-1">
          <mxGeometry x="660" y="1050" width="100" height="30" as="geometry" />
        </mxCell>
        <mxCell id="Gq5bSEAUi8Ulnxepstt4-61" value="Functions" style="text;html=1;align=center;verticalAlign=middle;resizable=0;points=[];autosize=1;strokeColor=none;fillColor=none;" vertex="1" parent="WIyWlLk6GJQsqaUBKTNV-1">
          <mxGeometry x="490" y="1044" width="80" height="30" as="geometry" />
        </mxCell>
        <mxCell id="Gq5bSEAUi8Ulnxepstt4-64" style="edgeStyle=orthogonalEdgeStyle;rounded=0;orthogonalLoop=1;jettySize=auto;html=1;entryX=0;entryY=0.5;entryDx=0;entryDy=0;exitX=1;exitY=0.5;exitDx=0;exitDy=0;" edge="1" parent="WIyWlLk6GJQsqaUBKTNV-1" target="Gq5bSEAUi8Ulnxepstt4-65" source="Gq5bSEAUi8Ulnxepstt4-8">
          <mxGeometry relative="1" as="geometry">
            <mxPoint x="530" y="75" as="sourcePoint" />
          </mxGeometry>
        </mxCell>
        <mxCell id="Gq5bSEAUi8Ulnxepstt4-65" value="View Menu" style="rounded=1;whiteSpace=wrap;html=1;fontSize=12;glass=0;strokeWidth=1;shadow=0;" vertex="1" parent="WIyWlLk6GJQsqaUBKTNV-1">
          <mxGeometry x="660" y="10" width="100" height="30" as="geometry" />
        </mxCell>
        <mxCell id="Gq5bSEAUi8Ulnxepstt4-66" value="Read Review" style="rounded=1;whiteSpace=wrap;html=1;fontSize=12;glass=0;strokeWidth=1;shadow=0;" vertex="1" parent="WIyWlLk6GJQsqaUBKTNV-1">
          <mxGeometry x="660" y="50" width="100" height="30" as="geometry" />
        </mxCell>
        <mxCell id="Gq5bSEAUi8Ulnxepstt4-67" value="Place/Cancel Order" style="rounded=1;whiteSpace=wrap;html=1;fontSize=12;glass=0;strokeWidth=1;shadow=0;" vertex="1" parent="WIyWlLk6GJQsqaUBKTNV-1">
          <mxGeometry x="660" y="90" width="100" height="30" as="geometry" />
        </mxCell>
        <mxCell id="Gq5bSEAUi8Ulnxepstt4-68" value="Functions" style="text;html=1;align=center;verticalAlign=middle;resizable=0;points=[];autosize=1;strokeColor=none;fillColor=none;" vertex="1" parent="WIyWlLk6GJQsqaUBKTNV-1">
          <mxGeometry x="510" y="2" width="80" height="30" as="geometry" />
        </mxCell>
        <mxCell id="Gq5bSEAUi8Ulnxepstt4-70" value="Check Order Status" style="rounded=1;whiteSpace=wrap;html=1;fontSize=12;glass=0;strokeWidth=1;shadow=0;" vertex="1" parent="WIyWlLk6GJQsqaUBKTNV-1">
          <mxGeometry x="660" y="130" width="100" height="30" as="geometry" />
        </mxCell>
        <mxCell id="Gq5bSEAUi8Ulnxepstt4-71" value="Check Order History" style="rounded=1;whiteSpace=wrap;html=1;fontSize=12;glass=0;strokeWidth=1;shadow=0;" vertex="1" parent="WIyWlLk6GJQsqaUBKTNV-1">
          <mxGeometry x="660" y="170" width="100" height="30" as="geometry" />
        </mxCell>
        <mxCell id="Gq5bSEAUi8Ulnxepstt4-77" value="Check Balance" style="rounded=1;whiteSpace=wrap;html=1;fontSize=12;glass=0;strokeWidth=1;shadow=0;" vertex="1" parent="WIyWlLk6GJQsqaUBKTNV-1">
          <mxGeometry x="660" y="220" width="100" height="30" as="geometry" />
        </mxCell>
        <mxCell id="Gq5bSEAUi8Ulnxepstt4-78" value="Check Transaction History" style="rounded=1;whiteSpace=wrap;html=1;fontSize=12;glass=0;strokeWidth=1;shadow=0;" vertex="1" parent="WIyWlLk6GJQsqaUBKTNV-1">
          <mxGeometry x="660" y="260" width="140" height="30" as="geometry" />
        </mxCell>
        <mxCell id="Gq5bSEAUi8Ulnxepstt4-79" value="Check TopUp Receipt" style="rounded=1;whiteSpace=wrap;html=1;fontSize=12;glass=0;strokeWidth=1;shadow=0;" vertex="1" parent="WIyWlLk6GJQsqaUBKTNV-1">
          <mxGeometry x="660" y="300" width="100" height="30" as="geometry" />
        </mxCell>
      </root>
    </mxGraphModel>
  </diagram>
</mxfile>
